<svg xmlns="http://www.w3.org/2000/svg" xmlns:xlink="http://www.w3.org/1999/xlink" width="500" zoomAndPan="magnify" viewBox="0 0 375 225" height="300" preserveAspectRatio="xMidYMid meet" version="1.0"><defs><g/><clipPath id="616c5f5c0a"><path d="M 113 15 L 244 15 L 244 97 L 113 97 Z M 113 15 " clip-rule="nonzero"/></clipPath><clipPath id="f4688e6bb0"><path d="M 77.269531 12.285156 L 218.828125 -66.488281 L 297.964844 75.726562 L 156.40625 154.5 Z M 77.269531 12.285156 " clip-rule="nonzero"/></clipPath><clipPath id="dc95413bf6"><path d="M 77.269531 12.285156 L 218.828125 -66.488281 L 297.964844 75.726562 L 156.40625 154.5 Z M 77.269531 12.285156 " clip-rule="nonzero"/></clipPath><clipPath id="f4f9b65240"><path d="M 77.269531 12.285156 L 218.828125 -66.488281 L 297.964844 75.726562 L 156.40625 154.5 Z M 77.269531 12.285156 " clip-rule="nonzero"/></clipPath><clipPath id="4c065cb974"><path d="M 120 15 L 124 15 L 124 33 L 120 33 Z M 120 15 " clip-rule="nonzero"/></clipPath><clipPath id="471e801606"><path d="M 77.269531 12.285156 L 218.828125 -66.488281 L 297.964844 75.726562 L 156.40625 154.5 Z M 77.269531 12.285156 " clip-rule="nonzero"/></clipPath><clipPath id="2329dbc1c8"><path d="M 77.269531 12.285156 L 218.828125 -66.488281 L 297.964844 75.726562 L 156.40625 154.5 Z M 77.269531 12.285156 " clip-rule="nonzero"/></clipPath><clipPath id="0bf7eea07b"><path d="M 77.269531 12.285156 L 218.828125 -66.488281 L 297.964844 75.726562 L 156.40625 154.5 Z M 77.269531 12.285156 " clip-rule="nonzero"/></clipPath><clipPath id="fc1983c7b4"><path d="M 120 15 L 244 15 L 244 56 L 120 56 Z M 120 15 " clip-rule="nonzero"/></clipPath><clipPath id="f86ddd85ab"><path d="M 77.269531 12.285156 L 218.828125 -66.488281 L 297.964844 75.726562 L 156.40625 154.5 Z M 77.269531 12.285156 " clip-rule="nonzero"/></clipPath><clipPath id="f56d9db57e"><path d="M 77.269531 12.285156 L 218.828125 -66.488281 L 297.964844 75.726562 L 156.40625 154.5 Z M 77.269531 12.285156 " clip-rule="nonzero"/></clipPath><clipPath id="30375ae085"><path d="M 77.269531 12.285156 L 218.828125 -66.488281 L 297.964844 75.726562 L 156.40625 154.5 Z M 77.269531 12.285156 " clip-rule="nonzero"/></clipPath><clipPath id="3235d41d6e"><path d="M 114 56 L 236 56 L 236 92 L 114 92 Z M 114 56 " clip-rule="nonzero"/></clipPath><clipPath id="643f70dbac"><path d="M 77.269531 12.285156 L 218.828125 -66.488281 L 297.964844 75.726562 L 156.40625 154.5 Z M 77.269531 12.285156 " clip-rule="nonzero"/></clipPath><clipPath id="eed657a066"><path d="M 77.269531 12.285156 L 218.828125 -66.488281 L 297.964844 75.726562 L 156.40625 154.5 Z M 77.269531 12.285156 " clip-rule="nonzero"/></clipPath><clipPath id="e1cf6b457d"><path d="M 77.269531 12.285156 L 218.828125 -66.488281 L 297.964844 75.726562 L 156.40625 154.5 Z M 77.269531 12.285156 " clip-rule="nonzero"/></clipPath><clipPath id="5d5d0e8bf8"><path d="M 188 27 L 198 27 L 198 30 L 188 30 Z M 188 27 " clip-rule="nonzero"/></clipPath><clipPath id="e4e97db234"><path d="M 77.269531 12.285156 L 218.828125 -66.488281 L 297.964844 75.726562 L 156.40625 154.5 Z M 77.269531 12.285156 " clip-rule="nonzero"/></clipPath><clipPath id="fa7ba63e80"><path d="M 77.269531 12.285156 L 218.828125 -66.488281 L 297.964844 75.726562 L 156.40625 154.5 Z M 77.269531 12.285156 " clip-rule="nonzero"/></clipPath><clipPath id="4705c59fa0"><path d="M 77.269531 12.285156 L 218.828125 -66.488281 L 297.964844 75.726562 L 156.40625 154.5 Z M 77.269531 12.285156 " clip-rule="nonzero"/></clipPath><clipPath id="7d5963ee87"><path d="M 175 55 L 193 55 L 193 95 L 175 95 Z M 175 55 " clip-rule="nonzero"/></clipPath><clipPath id="f302562685"><path d="M 77.269531 12.285156 L 218.828125 -66.488281 L 297.964844 75.726562 L 156.40625 154.5 Z M 77.269531 12.285156 " clip-rule="nonzero"/></clipPath><clipPath id="d8bf0250db"><path d="M 77.269531 12.285156 L 218.828125 -66.488281 L 297.964844 75.726562 L 156.40625 154.5 Z M 77.269531 12.285156 " clip-rule="nonzero"/></clipPath><clipPath id="181c78fa23"><path d="M 77.269531 12.285156 L 218.828125 -66.488281 L 297.964844 75.726562 L 156.40625 154.5 Z M 77.269531 12.285156 " clip-rule="nonzero"/></clipPath><clipPath id="fd8eafc970"><path d="M 183 27 L 198 27 L 198 56 L 183 56 Z M 183 27 " clip-rule="nonzero"/></clipPath><clipPath id="c79c195dc0"><path d="M 77.269531 12.285156 L 218.828125 -66.488281 L 297.964844 75.726562 L 156.40625 154.5 Z M 77.269531 12.285156 " clip-rule="nonzero"/></clipPath><clipPath id="cb2c4658c6"><path d="M 77.269531 12.285156 L 218.828125 -66.488281 L 297.964844 75.726562 L 156.40625 154.5 Z M 77.269531 12.285156 " clip-rule="nonzero"/></clipPath><clipPath id="d61498d497"><path d="M 77.269531 12.285156 L 218.828125 -66.488281 L 297.964844 75.726562 L 156.40625 154.5 Z M 77.269531 12.285156 " clip-rule="nonzero"/></clipPath><clipPath id="f76670f1bd"><path d="M 176 83 L 188 83 L 188 90 L 176 90 Z M 176 83 " clip-rule="nonzero"/></clipPath><clipPath id="6506ee844b"><path d="M 77.269531 12.285156 L 218.828125 -66.488281 L 297.964844 75.726562 L 156.40625 154.5 Z M 77.269531 12.285156 " clip-rule="nonzero"/></clipPath><clipPath id="97a3561dba"><path d="M 77.269531 12.285156 L 218.828125 -66.488281 L 297.964844 75.726562 L 156.40625 154.5 Z M 77.269531 12.285156 " clip-rule="nonzero"/></clipPath><clipPath id="67cf4762bc"><path d="M 77.269531 12.285156 L 218.828125 -66.488281 L 297.964844 75.726562 L 156.40625 154.5 Z M 77.269531 12.285156 " clip-rule="nonzero"/></clipPath><clipPath id="46d303cbe4"><path d="M 210 32 L 229 32 L 229 36 L 210 36 Z M 210 32 " clip-rule="nonzero"/></clipPath><clipPath id="dcd6458ed0"><path d="M 77.269531 12.285156 L 218.828125 -66.488281 L 297.964844 75.726562 L 156.40625 154.5 Z M 77.269531 12.285156 " clip-rule="nonzero"/></clipPath><clipPath id="fbf7978442"><path d="M 77.269531 12.285156 L 218.828125 -66.488281 L 297.964844 75.726562 L 156.40625 154.5 Z M 77.269531 12.285156 " clip-rule="nonzero"/></clipPath><clipPath id="912baca103"><path d="M 77.269531 12.285156 L 218.828125 -66.488281 L 297.964844 75.726562 L 156.40625 154.5 Z M 77.269531 12.285156 " clip-rule="nonzero"/></clipPath><clipPath id="22f946c85c"><path d="M 198 54 L 226 54 L 226 97 L 198 97 Z M 198 54 " clip-rule="nonzero"/></clipPath><clipPath id="e111e2ad98"><path d="M 77.269531 12.285156 L 218.828125 -66.488281 L 297.964844 75.726562 L 156.40625 154.5 Z M 77.269531 12.285156 " clip-rule="nonzero"/></clipPath><clipPath id="4bee168742"><path d="M 77.269531 12.285156 L 218.828125 -66.488281 L 297.964844 75.726562 L 156.40625 154.5 Z M 77.269531 12.285156 " clip-rule="nonzero"/></clipPath><clipPath id="b81f73165b"><path d="M 77.269531 12.285156 L 218.828125 -66.488281 L 297.964844 75.726562 L 156.40625 154.5 Z M 77.269531 12.285156 " clip-rule="nonzero"/></clipPath><clipPath id="2025bc3212"><path d="M 205 32 L 229 32 L 229 56 L 205 56 Z M 205 32 " clip-rule="nonzero"/></clipPath><clipPath id="f76b660d13"><path d="M 77.269531 12.285156 L 218.828125 -66.488281 L 297.964844 75.726562 L 156.40625 154.5 Z M 77.269531 12.285156 " clip-rule="nonzero"/></clipPath><clipPath id="8ad0a9eea2"><path d="M 77.269531 12.285156 L 218.828125 -66.488281 L 297.964844 75.726562 L 156.40625 154.5 Z M 77.269531 12.285156 " clip-rule="nonzero"/></clipPath><clipPath id="c282e5de70"><path d="M 77.269531 12.285156 L 218.828125 -66.488281 L 297.964844 75.726562 L 156.40625 154.5 Z M 77.269531 12.285156 " clip-rule="nonzero"/></clipPath><clipPath id="810d9228ed"><path d="M 199 85 L 220 85 L 220 92 L 199 92 Z M 199 85 " clip-rule="nonzero"/></clipPath><clipPath id="975faba3ac"><path d="M 77.269531 12.285156 L 218.828125 -66.488281 L 297.964844 75.726562 L 156.40625 154.5 Z M 77.269531 12.285156 " clip-rule="nonzero"/></clipPath><clipPath id="8bcb8de0d9"><path d="M 77.269531 12.285156 L 218.828125 -66.488281 L 297.964844 75.726562 L 156.40625 154.5 Z M 77.269531 12.285156 " clip-rule="nonzero"/></clipPath><clipPath id="12e06fb26b"><path d="M 77.269531 12.285156 L 218.828125 -66.488281 L 297.964844 75.726562 L 156.40625 154.5 Z M 77.269531 12.285156 " clip-rule="nonzero"/></clipPath><clipPath id="581169d421"><path d="M 251 73 L 272 73 L 272 95 L 251 95 Z M 251 73 " clip-rule="nonzero"/></clipPath><clipPath id="30399cda5d"><path d="M 77.269531 12.285156 L 218.828125 -66.488281 L 297.964844 75.726562 L 156.40625 154.5 Z M 77.269531 12.285156 " clip-rule="nonzero"/></clipPath><clipPath id="676a166765"><path d="M 77.269531 12.285156 L 218.828125 -66.488281 L 297.964844 75.726562 L 156.40625 154.5 Z M 77.269531 12.285156 " clip-rule="nonzero"/></clipPath><clipPath id="65889932c2"><path d="M 77.269531 12.285156 L 218.828125 -66.488281 L 297.964844 75.726562 L 156.40625 154.5 Z M 77.269531 12.285156 " clip-rule="nonzero"/></clipPath><clipPath id="63a01df906"><path d="M 86 6 L 181 6 L 181 50 L 86 50 Z M 86 6 " clip-rule="nonzero"/></clipPath><clipPath id="be009842be"><path d="M 77.269531 12.285156 L 218.828125 -66.488281 L 297.964844 75.726562 L 156.40625 154.5 Z M 77.269531 12.285156 " clip-rule="nonzero"/></clipPath><clipPath id="e6d1672676"><path d="M 77.269531 12.285156 L 218.828125 -66.488281 L 297.964844 75.726562 L 156.40625 154.5 Z M 77.269531 12.285156 " clip-rule="nonzero"/></clipPath><clipPath id="0ea69e1670"><path d="M 77.269531 12.285156 L 218.828125 -66.488281 L 297.964844 75.726562 L 156.40625 154.5 Z M 77.269531 12.285156 " clip-rule="nonzero"/></clipPath><clipPath id="57c4455598"><path d="M 87 6 L 281 6 L 281 45 L 87 45 Z M 87 6 " clip-rule="nonzero"/></clipPath><clipPath id="8b45457b65"><path d="M 77.269531 12.285156 L 218.828125 -66.488281 L 297.964844 75.726562 L 156.40625 154.5 Z M 77.269531 12.285156 " clip-rule="nonzero"/></clipPath><clipPath id="58f0891a2a"><path d="M 77.269531 12.285156 L 218.828125 -66.488281 L 297.964844 75.726562 L 156.40625 154.5 Z M 77.269531 12.285156 " clip-rule="nonzero"/></clipPath><clipPath id="08b8ec1c6b"><path d="M 77.269531 12.285156 L 218.828125 -66.488281 L 297.964844 75.726562 L 156.40625 154.5 Z M 77.269531 12.285156 " clip-rule="nonzero"/></clipPath><clipPath id="759edc82d3"><path d="M 179 44 L 281 44 L 281 50 L 179 50 Z M 179 44 " clip-rule="nonzero"/></clipPath><clipPath id="452b38cc7b"><path d="M 77.269531 12.285156 L 218.828125 -66.488281 L 297.964844 75.726562 L 156.40625 154.5 Z M 77.269531 12.285156 " clip-rule="nonzero"/></clipPath><clipPath id="7ecbcca813"><path d="M 77.269531 12.285156 L 218.828125 -66.488281 L 297.964844 75.726562 L 156.40625 154.5 Z M 77.269531 12.285156 " clip-rule="nonzero"/></clipPath><clipPath id="4ef97b820b"><path d="M 77.269531 12.285156 L 218.828125 -66.488281 L 297.964844 75.726562 L 156.40625 154.5 Z M 77.269531 12.285156 " clip-rule="nonzero"/></clipPath><clipPath id="11b72db340"><path d="M 182 23 L 254 23 L 254 72 L 182 72 Z M 182 23 " clip-rule="nonzero"/></clipPath><clipPath id="e226bd7b8f"><path d="M 77.269531 12.285156 L 218.828125 -66.488281 L 297.964844 75.726562 L 156.40625 154.5 Z M 77.269531 12.285156 " clip-rule="nonzero"/></clipPath><clipPath id="0354e1091d"><path d="M 77.269531 12.285156 L 218.828125 -66.488281 L 297.964844 75.726562 L 156.40625 154.5 Z M 77.269531 12.285156 " clip-rule="nonzero"/></clipPath><clipPath id="26010103df"><path d="M 77.269531 12.285156 L 218.828125 -66.488281 L 297.964844 75.726562 L 156.40625 154.5 Z M 77.269531 12.285156 " clip-rule="nonzero"/></clipPath><clipPath id="203a350503"><path d="M 177 21 L 191 21 L 191 28 L 177 28 Z M 177 21 " clip-rule="nonzero"/></clipPath><clipPath id="c982055208"><path d="M 77.269531 12.285156 L 218.828125 -66.488281 L 297.964844 75.726562 L 156.40625 154.5 Z M 77.269531 12.285156 " clip-rule="nonzero"/></clipPath><clipPath id="3e37fb1198"><path d="M 77.269531 12.285156 L 218.828125 -66.488281 L 297.964844 75.726562 L 156.40625 154.5 Z M 77.269531 12.285156 " clip-rule="nonzero"/></clipPath><clipPath id="4f3ecc1897"><path d="M 77.269531 12.285156 L 218.828125 -66.488281 L 297.964844 75.726562 L 156.40625 154.5 Z M 77.269531 12.285156 " clip-rule="nonzero"/></clipPath><clipPath id="1614f0f18c"><path d="M 247 66 L 260 66 L 260 78 L 247 78 Z M 247 66 " clip-rule="nonzero"/></clipPath><clipPath id="cc2c2b2c70"><path d="M 77.269531 12.285156 L 218.828125 -66.488281 L 297.964844 75.726562 L 156.40625 154.5 Z M 77.269531 12.285156 " clip-rule="nonzero"/></clipPath><clipPath id="15d17a727e"><path d="M 77.269531 12.285156 L 218.828125 -66.488281 L 297.964844 75.726562 L 156.40625 154.5 Z M 77.269531 12.285156 " clip-rule="nonzero"/></clipPath><clipPath id="ff4d7d4eda"><path d="M 77.269531 12.285156 L 218.828125 -66.488281 L 297.964844 75.726562 L 156.40625 154.5 Z M 77.269531 12.285156 " clip-rule="nonzero"/></clipPath></defs><g fill="#000000" fill-opacity="1"><g transform="translate(-1.421855, 160.387825)"><g><path d="M 24.328125 0.828125 C 17.578125 0.828125 12.390625 -1.171875 8.765625 -5.171875 C 5.140625 -9.171875 3.328125 -15.003906 3.328125 -22.671875 C 3.328125 -30.085938 5.164062 -35.785156 8.84375 -39.765625 C 12.519531 -43.753906 17.734375 -45.75 24.484375 -45.75 C 30.929688 -45.75 35.859375 -43.609375 39.265625 -39.328125 C 42.671875 -35.054688 44.375 -28.796875 44.375 -20.546875 L 44.375 -20.21875 L 15.5625 -20.21875 C 15.5625 -15.84375 16.367188 -12.539062 17.984375 -10.3125 C 19.609375 -8.082031 21.914062 -6.96875 24.90625 -6.96875 C 29.03125 -6.96875 31.632812 -8.753906 32.71875 -12.328125 L 43.71875 -11.375 C 40.53125 -3.238281 34.066406 0.828125 24.328125 0.828125 Z M 24.328125 -38.390625 C 21.585938 -38.390625 19.476562 -37.4375 18 -35.53125 C 16.519531 -33.625 15.738281 -30.953125 15.65625 -27.515625 L 33.078125 -27.515625 C 32.859375 -31.140625 31.988281 -33.859375 30.46875 -35.671875 C 28.945312 -37.484375 26.898438 -38.390625 24.328125 -38.390625 Z M 17.34375 -49.109375 L 17.34375 -50.390625 L 27.8125 -62.34375 L 38.515625 -62.34375 L 38.515625 -60.5625 L 24.40625 -49.109375 Z M 17.34375 -49.109375 "/></g></g></g><g fill="#000000" fill-opacity="1"><g transform="translate(45.855409, 160.387825)"><g><path d="M 17.4375 0.75 C 14 0.75 11.351562 -0.179688 9.5 -2.046875 C 7.644531 -3.921875 6.71875 -6.753906 6.71875 -10.546875 L 6.71875 -37.03125 L 1.03125 -37.03125 L 1.03125 -44.921875 L 7.3125 -44.921875 L 10.953125 -55.453125 L 18.265625 -55.453125 L 18.265625 -44.921875 L 26.78125 -44.921875 L 26.78125 -37.03125 L 18.265625 -37.03125 L 18.265625 -13.703125 C 18.265625 -11.515625 18.675781 -9.898438 19.5 -8.859375 C 20.332031 -7.828125 21.625 -7.3125 23.375 -7.3125 C 24.28125 -7.3125 25.578125 -7.503906 27.265625 -7.890625 L 27.265625 -0.671875 C 24.390625 0.273438 21.113281 0.75 17.4375 0.75 Z M 17.4375 0.75 "/></g></g></g><g fill="#000000" fill-opacity="1"><g transform="translate(74.163652, 160.387825)"><g><path d="M 16.9375 -44.921875 L 16.9375 -19.71875 C 16.9375 -11.832031 19.59375 -7.890625 24.90625 -7.890625 C 27.726562 -7.890625 30.003906 -9.097656 31.734375 -11.515625 C 33.460938 -13.941406 34.328125 -17.050781 34.328125 -20.84375 L 34.328125 -44.921875 L 46 -44.921875 L 46 -10.046875 C 46 -6.222656 46.109375 -2.875 46.328125 0 L 35.203125 0 C 34.867188 -3.988281 34.703125 -6.960938 34.703125 -8.921875 L 34.5 -8.921875 C 32.945312 -5.515625 30.972656 -3.035156 28.578125 -1.484375 C 26.179688 0.0546875 23.335938 0.828125 20.046875 0.828125 C 15.285156 0.828125 11.628906 -0.628906 9.078125 -3.546875 C 6.535156 -6.460938 5.265625 -10.742188 5.265625 -16.390625 L 5.265625 -44.921875 Z M 16.9375 -44.921875 "/></g></g></g><g fill="#000000" fill-opacity="1"><g transform="translate(126.089778, 160.387825)"><g><path d="M 35.03125 0 C 34.925781 -0.414062 34.796875 -1.457031 34.640625 -3.125 C 34.484375 -4.800781 34.40625 -6.195312 34.40625 -7.3125 L 34.25 -7.3125 C 31.726562 -1.882812 26.941406 0.828125 19.890625 0.828125 C 14.648438 0.828125 10.601562 -1.210938 7.75 -5.296875 C 4.90625 -9.378906 3.484375 -15.085938 3.484375 -22.421875 C 3.484375 -29.859375 4.984375 -35.601562 7.984375 -39.65625 C 10.992188 -43.71875 15.25 -45.75 20.75 -45.75 C 23.9375 -45.75 26.6875 -45.082031 29 -43.75 C 31.3125 -42.425781 33.085938 -40.445312 34.328125 -37.8125 L 34.40625 -37.8125 L 34.328125 -45.203125 L 34.328125 -61.609375 L 46 -61.609375 L 46 -9.796875 C 46 -7.023438 46.109375 -3.757812 46.328125 0 Z M 34.5 -22.703125 C 34.5 -27.546875 33.6875 -31.273438 32.0625 -33.890625 C 30.445312 -36.503906 28.0625 -37.8125 24.90625 -37.8125 C 21.78125 -37.8125 19.457031 -36.546875 17.9375 -34.015625 C 16.414062 -31.484375 15.65625 -27.617188 15.65625 -22.421875 C 15.65625 -12.234375 18.710938 -7.140625 24.828125 -7.140625 C 27.898438 -7.140625 30.28125 -8.488281 31.96875 -11.1875 C 33.65625 -13.882812 34.5 -17.722656 34.5 -22.703125 Z M 34.5 -22.703125 "/></g></g></g><g fill="#000000" fill-opacity="1"><g transform="translate(178.015903, 160.387825)"><g><path d="M 5.9375 -53.015625 L 5.9375 -61.609375 L 17.59375 -61.609375 L 17.59375 -53.015625 Z M 5.9375 0 L 5.9375 -44.921875 L 17.59375 -44.921875 L 17.59375 0 Z M 5.9375 0 "/></g></g></g><g fill="#000000" fill-opacity="1"><g transform="translate(201.633785, 160.387825)"><g><path d="M 16.3125 0.828125 C 11.96875 0.828125 8.578125 -0.351562 6.140625 -2.71875 C 3.703125 -5.082031 2.484375 -8.410156 2.484375 -12.703125 C 2.484375 -17.347656 4 -20.890625 7.03125 -23.328125 C 10.0625 -25.765625 14.457031 -27.007812 20.21875 -27.0625 L 29.890625 -27.234375 L 29.890625 -29.515625 C 29.890625 -32.453125 29.375 -34.628906 28.34375 -36.046875 C 27.320312 -37.472656 25.648438 -38.1875 23.328125 -38.1875 C 21.171875 -38.1875 19.585938 -37.695312 18.578125 -36.71875 C 17.566406 -35.738281 16.9375 -34.113281 16.6875 -31.84375 L 4.53125 -32.421875 C 5.269531 -36.796875 7.265625 -40.109375 10.515625 -42.359375 C 13.773438 -44.617188 18.210938 -45.75 23.828125 -45.75 C 29.503906 -45.75 33.875 -44.347656 36.9375 -41.546875 C 40.007812 -38.753906 41.546875 -34.785156 41.546875 -29.640625 L 41.546875 -13.28125 C 41.546875 -10.757812 41.828125 -9.019531 42.390625 -8.0625 C 42.960938 -7.113281 43.914062 -6.640625 45.25 -6.640625 C 46.132812 -6.640625 46.992188 -6.722656 47.828125 -6.890625 L 47.828125 -0.578125 C 47.128906 -0.410156 46.503906 -0.257812 45.953125 -0.125 C 45.398438 0.0078125 44.847656 0.117188 44.296875 0.203125 C 43.742188 0.285156 43.15625 0.351562 42.53125 0.40625 C 41.90625 0.46875 41.175781 0.5 40.34375 0.5 C 37.414062 0.5 35.25 -0.21875 33.84375 -1.65625 C 32.445312 -3.09375 31.613281 -5.210938 31.34375 -8.015625 L 31.09375 -8.015625 C 27.820312 -2.117188 22.894531 0.828125 16.3125 0.828125 Z M 29.890625 -20.796875 L 23.90625 -20.71875 C 21.195312 -20.601562 19.273438 -20.300781 18.140625 -19.8125 C 17.003906 -19.332031 16.140625 -18.59375 15.546875 -17.59375 C 14.953125 -16.601562 14.65625 -15.273438 14.65625 -13.609375 C 14.65625 -11.484375 15.144531 -9.898438 16.125 -8.859375 C 17.101562 -7.828125 18.410156 -7.3125 20.046875 -7.3125 C 21.878906 -7.3125 23.546875 -7.804688 25.046875 -8.796875 C 26.554688 -9.796875 27.738281 -11.171875 28.59375 -12.921875 C 29.457031 -14.679688 29.890625 -16.546875 29.890625 -18.515625 Z M 29.890625 -20.796875 "/></g></g></g><g fill="#000000" fill-opacity="1"><g transform="translate(248.911049, 160.387825)"><g><path d="M 35.03125 0 L 35.03125 -25.203125 C 35.03125 -33.085938 32.363281 -37.03125 27.03125 -37.03125 C 24.207031 -37.03125 21.925781 -35.816406 20.1875 -33.390625 C 18.457031 -30.972656 17.59375 -27.867188 17.59375 -24.078125 L 17.59375 0 L 5.9375 0 L 5.9375 -34.875 C 5.9375 -37.28125 5.898438 -39.25 5.828125 -40.78125 C 5.765625 -42.320312 5.691406 -43.703125 5.609375 -44.921875 L 16.734375 -44.921875 C 16.816406 -44.390625 16.925781 -42.984375 17.0625 -40.703125 C 17.195312 -38.421875 17.265625 -36.847656 17.265625 -35.984375 L 17.4375 -35.984375 C 19.007812 -39.421875 20.984375 -41.910156 23.359375 -43.453125 C 25.742188 -45.003906 28.582031 -45.78125 31.875 -45.78125 C 36.632812 -45.78125 40.285156 -44.3125 42.828125 -41.375 C 45.378906 -38.445312 46.65625 -34.160156 46.65625 -28.515625 L 46.65625 0 Z M 35.03125 0 "/></g></g></g><g fill="#000000" fill-opacity="1"><g transform="translate(300.837175, 160.387825)"><g><path d="M 17.4375 0.75 C 14 0.75 11.351562 -0.179688 9.5 -2.046875 C 7.644531 -3.921875 6.71875 -6.753906 6.71875 -10.546875 L 6.71875 -37.03125 L 1.03125 -37.03125 L 1.03125 -44.921875 L 7.3125 -44.921875 L 10.953125 -55.453125 L 18.265625 -55.453125 L 18.265625 -44.921875 L 26.78125 -44.921875 L 26.78125 -37.03125 L 18.265625 -37.03125 L 18.265625 -13.703125 C 18.265625 -11.515625 18.675781 -9.898438 19.5 -8.859375 C 20.332031 -7.828125 21.625 -7.3125 23.375 -7.3125 C 24.28125 -7.3125 25.578125 -7.503906 27.265625 -7.890625 L 27.265625 -0.671875 C 24.390625 0.273438 21.113281 0.75 17.4375 0.75 Z M 17.4375 0.75 "/></g></g></g><g fill="#000000" fill-opacity="1"><g transform="translate(329.145402, 160.387825)"><g><path d="M 43.796875 -13.125 C 43.796875 -8.769531 42.015625 -5.351562 38.453125 -2.875 C 34.898438 -0.40625 29.984375 0.828125 23.703125 0.828125 C 17.535156 0.828125 12.8125 -0.144531 9.53125 -2.09375 C 6.25 -4.039062 4.066406 -7.078125 2.984375 -11.203125 L 13.234375 -12.75 C 13.816406 -10.613281 14.820312 -9.101562 16.25 -8.21875 C 17.675781 -7.332031 20.160156 -6.890625 23.703125 -6.890625 C 26.960938 -6.890625 29.335938 -7.300781 30.828125 -8.125 C 32.328125 -8.957031 33.078125 -10.257812 33.078125 -12.03125 C 33.078125 -13.476562 32.472656 -14.625 31.265625 -15.46875 C 30.066406 -16.3125 28.03125 -17.019531 25.15625 -17.59375 C 18.570312 -18.894531 14.128906 -20.109375 11.828125 -21.234375 C 9.535156 -22.359375 7.785156 -23.8125 6.578125 -25.59375 C 5.378906 -27.375 4.78125 -29.566406 4.78125 -32.171875 C 4.78125 -36.460938 6.429688 -39.800781 9.734375 -42.1875 C 13.035156 -44.582031 17.71875 -45.78125 23.78125 -45.78125 C 29.125 -45.78125 33.421875 -44.742188 36.671875 -42.671875 C 39.921875 -40.597656 41.945312 -37.597656 42.75 -33.671875 L 32.421875 -32.59375 C 32.085938 -34.414062 31.269531 -35.773438 29.96875 -36.671875 C 28.664062 -37.578125 26.601562 -38.03125 23.78125 -38.03125 C 21.019531 -38.03125 18.945312 -37.675781 17.5625 -36.96875 C 16.175781 -36.257812 15.484375 -35.078125 15.484375 -33.421875 C 15.484375 -32.117188 16.015625 -31.085938 17.078125 -30.328125 C 18.148438 -29.566406 19.941406 -28.9375 22.453125 -28.4375 C 25.972656 -27.71875 29.09375 -26.976562 31.8125 -26.21875 C 34.539062 -25.457031 36.726562 -24.550781 38.375 -23.5 C 40.019531 -22.445312 41.332031 -21.097656 42.3125 -19.453125 C 43.300781 -17.804688 43.796875 -15.695312 43.796875 -13.125 Z M 43.796875 -13.125 "/></g></g></g><g clip-path="url(#616c5f5c0a)"><g clip-path="url(#f4688e6bb0)"><g clip-path="url(#dc95413bf6)"><g clip-path="url(#f4f9b65240)"><path fill="#22222e" d="M 243.191406 38.503906 L 123.722656 15.292969 L 113.691406 67.160156 C 112.21875 74.761719 137.773438 86.121094 170.765625 92.53125 C 203.757812 98.9375 231.691406 97.972656 233.160156 90.371094 L 243.191406 38.503906 " fill-opacity="1" fill-rule="nonzero"/></g></g></g></g><g clip-path="url(#4c065cb974)"><g clip-path="url(#471e801606)"><g clip-path="url(#2329dbc1c8)"><g clip-path="url(#0bf7eea07b)"><path fill="#d3d2d2" d="M 120.320312 32.878906 L 123.722656 15.292969 L 120.320312 32.878906 " fill-opacity="1" fill-rule="nonzero"/></g></g></g></g><g clip-path="url(#fc1983c7b4)"><g clip-path="url(#f86ddd85ab)"><g clip-path="url(#f56d9db57e)"><g clip-path="url(#30375ae085)"><path fill="#1c1b26" d="M 240.054688 54.714844 L 225.226562 54.910156 L 228.9375 35.730469 L 243.191406 38.503906 L 240.054688 54.714844 M 205.96875 55.164062 L 192.683594 55.335938 L 197.652344 29.652344 L 210.417969 32.136719 L 205.96875 55.164062 M 183.167969 55.460938 L 178.296875 55.523438 L 120.320312 32.878906 L 123.722656 15.292969 L 188.5 27.878906 L 183.167969 55.460938 " fill-opacity="1" fill-rule="nonzero"/></g></g></g></g><g clip-path="url(#3235d41d6e)"><g clip-path="url(#643f70dbac)"><g clip-path="url(#eed657a066)"><g clip-path="url(#e1cf6b457d)"><path fill="#bc7c1a" d="M 172.78125 82.089844 C 139.789062 75.679688 114.242188 64.324219 115.710938 56.722656 L 114.777344 61.554688 C 113.304688 69.15625 138.859375 80.515625 171.847656 86.921875 C 204.835938 93.332031 232.773438 92.367188 234.246094 84.761719 L 235.179688 79.929688 C 233.710938 87.53125 205.773438 88.5 172.78125 82.089844 " fill-opacity="1" fill-rule="nonzero"/></g></g></g></g><g clip-path="url(#5d5d0e8bf8)"><g clip-path="url(#e4e97db234)"><g clip-path="url(#fa7ba63e80)"><g clip-path="url(#4705c59fa0)"><path fill="#d3d2d2" d="M 197.652344 29.65625 L 188.5 27.878906 L 188.503906 27.875 L 197.652344 29.652344 " fill-opacity="1" fill-rule="nonzero"/></g></g></g></g><g clip-path="url(#7d5963ee87)"><g clip-path="url(#f302562685)"><g clip-path="url(#d8bf0250db)"><g clip-path="url(#181c78fa23)"><path fill="#1c1b26" d="M 185.035156 94.890625 C 182.035156 94.476562 178.957031 94 175.816406 93.453125 L 176.902344 87.851562 C 180.039062 88.402344 183.117188 88.878906 186.117188 89.289062 L 185.035156 94.890625 M 187.054688 84.457031 C 184.054688 84.046875 180.972656 83.570312 177.835938 83.019531 L 183.167969 55.460938 L 192.683594 55.335938 L 187.054688 84.457031 " fill-opacity="1" fill-rule="nonzero"/></g></g></g></g><g clip-path="url(#fd8eafc970)"><g clip-path="url(#c79c195dc0)"><g clip-path="url(#cb2c4658c6)"><g clip-path="url(#d61498d497)"><path fill="#17161e" d="M 192.683594 55.335938 L 183.167969 55.460938 L 188.503906 27.875 L 197.652344 29.65625 L 192.683594 55.335938 " fill-opacity="1" fill-rule="nonzero"/></g></g></g></g><g clip-path="url(#f76670f1bd)"><g clip-path="url(#6506ee844b)"><g clip-path="url(#97a3561dba)"><g clip-path="url(#67cf4762bc)"><path fill="#9c6515" d="M 186.117188 89.289062 C 183.117188 88.878906 180.039062 88.402344 176.902344 87.851562 L 177.835938 83.019531 C 180.972656 83.570312 184.054688 84.046875 187.054688 84.457031 L 186.117188 89.289062 " fill-opacity="1" fill-rule="nonzero"/></g></g></g></g><g clip-path="url(#46d303cbe4)"><g clip-path="url(#dcd6458ed0)"><g clip-path="url(#fbf7978442)"><g clip-path="url(#912baca103)"><path fill="#d3d2d2" d="M 228.933594 35.734375 L 210.417969 32.136719 L 210.421875 32.136719 L 228.9375 35.730469 " fill-opacity="1" fill-rule="nonzero"/></g></g></g></g><g clip-path="url(#22f946c85c)"><g clip-path="url(#e111e2ad98)"><g clip-path="url(#4bee168742)"><g clip-path="url(#b81f73165b)"><path fill="#1c1b26" d="M 217.175781 96.523438 C 211.792969 96.914062 205.277344 96.835938 198.015625 96.28125 L 199.097656 90.683594 C 206.363281 91.234375 212.871094 91.308594 218.261719 90.917969 L 217.175781 96.523438 M 219.195312 86.089844 C 213.804688 86.476562 207.296875 86.402344 200.03125 85.851562 L 205.96875 55.164062 L 225.226562 54.910156 L 219.195312 86.089844 " fill-opacity="1" fill-rule="nonzero"/></g></g></g></g><g clip-path="url(#2025bc3212)"><g clip-path="url(#f76b660d13)"><g clip-path="url(#8ad0a9eea2)"><g clip-path="url(#c282e5de70)"><path fill="#17161e" d="M 225.226562 54.910156 L 205.96875 55.164062 L 210.421875 32.136719 L 228.933594 35.734375 L 225.226562 54.910156 " fill-opacity="1" fill-rule="nonzero"/></g></g></g></g><g clip-path="url(#810d9228ed)"><g clip-path="url(#975faba3ac)"><g clip-path="url(#8bcb8de0d9)"><g clip-path="url(#12e06fb26b)"><path fill="#9c6515" d="M 218.261719 90.917969 C 212.871094 91.308594 206.363281 91.234375 199.097656 90.683594 L 200.03125 85.851562 C 207.296875 86.402344 213.804688 86.476562 219.195312 86.089844 L 218.261719 90.917969 " fill-opacity="1" fill-rule="nonzero"/></g></g></g></g><g clip-path="url(#581169d421)"><g clip-path="url(#30399cda5d)"><g clip-path="url(#676a166765)"><g clip-path="url(#65889932c2)"><path fill="#a16e26" d="M 254.601562 74.414062 C 251.585938 76.683594 250.984375 80.96875 253.25 83.988281 C 253.25 83.988281 261.140625 91.375 260.769531 93.992188 C 260.398438 96.609375 274.21875 86.136719 271.691406 85.777344 C 269.164062 85.417969 264.171875 75.773438 264.171875 75.773438 C 261.90625 72.753906 257.621094 72.144531 254.601562 74.414062 " fill-opacity="1" fill-rule="nonzero"/></g></g></g></g><g clip-path="url(#63a01df906)"><g clip-path="url(#be009842be)"><g clip-path="url(#e6d1672676)"><g clip-path="url(#0ea69e1670)"><path fill="#26232f" d="M 179.128906 49.277344 L 86.1875 11.566406 L 87.113281 6.773438 L 180.054688 44.484375 L 179.128906 49.277344 " fill-opacity="1" fill-rule="nonzero"/></g></g></g></g><g clip-path="url(#57c4455598)"><g clip-path="url(#8b45457b65)"><g clip-path="url(#58f0891a2a)"><g clip-path="url(#08b8ec1c6b)"><path fill="#322f41" d="M 180.054688 44.484375 L 87.113281 6.773438 L 187.382812 6.601562 L 280.324219 44.308594 L 180.054688 44.484375 " fill-opacity="1" fill-rule="nonzero"/></g></g></g></g><g clip-path="url(#759edc82d3)"><g clip-path="url(#452b38cc7b)"><g clip-path="url(#7ecbcca813)"><g clip-path="url(#4ef97b820b)"><path fill="#46445d" d="M 279.402344 49.101562 L 179.128906 49.277344 L 180.054688 44.484375 L 280.324219 44.308594 L 279.402344 49.101562 " fill-opacity="1" fill-rule="nonzero"/></g></g></g></g><g clip-path="url(#11b72db340)"><g clip-path="url(#e226bd7b8f)"><g clip-path="url(#0354e1091d)"><g clip-path="url(#26010103df)"><path fill="#bf8d1e" d="M 251.679688 71.109375 C 251.46875 71.066406 251.265625 70.972656 251.09375 70.828125 C 243.238281 64.230469 247.097656 49.695312 248.53125 45.21875 L 183.574219 25.621094 C 182.882812 25.414062 182.492188 24.691406 182.699219 24 C 182.902344 23.3125 183.636719 22.925781 184.320312 23.128906 L 250.570312 43.117188 C 250.914062 43.222656 251.199219 43.464844 251.363281 43.785156 C 251.519531 44.109375 251.539062 44.480469 251.414062 44.816406 C 251.347656 44.992188 245.023438 62.328125 252.761719 68.835938 C 253.316406 69.296875 253.386719 70.117188 252.925781 70.667969 C 252.609375 71.042969 252.128906 71.191406 251.679688 71.109375 " fill-opacity="1" fill-rule="nonzero"/></g></g></g></g><g clip-path="url(#203a350503)"><g clip-path="url(#c982055208)"><g clip-path="url(#3e37fb1198)"><g clip-path="url(#4f3ecc1897)"><path fill="#bc7c1a" d="M 190.476562 25.644531 C 190.808594 23.941406 188.152344 21.988281 184.542969 21.289062 C 180.933594 20.589844 177.742188 21.402344 177.414062 23.109375 C 177.082031 24.8125 179.738281 26.761719 183.351562 27.464844 C 186.957031 28.164062 190.148438 27.351562 190.476562 25.644531 " fill-opacity="1" fill-rule="nonzero"/></g></g></g></g><g clip-path="url(#1614f0f18c)"><g clip-path="url(#cc2c2b2c70)"><g clip-path="url(#15d17a727e)"><g clip-path="url(#ff4d7d4eda)"><path fill="#bc7c1a" d="M 258.941406 72.960938 C 259.542969 69.84375 257.503906 66.828125 254.390625 66.222656 C 251.277344 65.621094 248.265625 67.652344 247.660156 70.769531 C 247.058594 73.882812 249.097656 76.898438 252.210938 77.507812 C 255.324219 78.109375 258.335938 76.078125 258.941406 72.960938 " fill-opacity="1" fill-rule="nonzero"/></g></g></g></g></svg>