<svg xmlns="http://www.w3.org/2000/svg" xmlns:xlink="http://www.w3.org/1999/xlink" width="500" zoomAndPan="magnify" viewBox="0 0 375 225" height="300" preserveAspectRatio="xMidYMid meet" version="1.0"><defs><g/><clipPath id="fbcaa9cb3a"><path d="M 125.089844 14 L 208 14 L 208 71 L 125.089844 71 Z M 125.089844 14 " clip-rule="nonzero"/></clipPath><clipPath id="bb4a87c290"><path d="M 142 14 L 204 14 L 204 112.152344 L 142 112.152344 Z M 142 14 " clip-rule="nonzero"/></clipPath><clipPath id="60ae03e18b"><path d="M 125.089844 14 L 180 14 L 180 112.152344 L 125.089844 112.152344 Z M 125.089844 14 " clip-rule="nonzero"/></clipPath></defs><g clip-path="url(#fbcaa9cb3a)"><path fill="#d37f22" d="M 125.441406 60.300781 L 136.058594 54.199219 L 144.605469 66.210938 L 137.414062 70.707031 L 125.703125 62.949219 C 125.484375 62.820312 125.089844 61.105469 125.089844 60.867188 C 125.089844 60.648438 125.199219 60.429688 125.441406 60.300781 Z M 207.625 35.5625 C 207.625 34.734375 207.058594 33.019531 206.859375 32.5 C 206.359375 31.261719 205.460938 30.675781 205.089844 30.152344 C 204.457031 29.285156 204.195312 26.894531 203.933594 24.136719 C 203.671875 21.378906 202.863281 14.296875 197.355469 14.449219 C 191.847656 14.601562 191.019531 18.792969 191.019531 18.792969 C 191.019531 18.792969 191.300781 23.636719 191.609375 24.484375 C 191.914062 25.332031 193.398438 26.003906 193.726562 26.003906 C 193.902344 26.003906 194.820312 27.632812 195.628906 29.390625 L 184.460938 22.984375 C 183.238281 22.269531 181.710938 22.269531 180.484375 22.984375 L 159.027344 35.300781 L 148.320312 24.699219 L 141.324219 45.445312 L 134.703125 49.203125 C 134.53125 49.289062 134.441406 49.460938 134.441406 49.636719 C 134.441406 49.808594 134.859375 51.65625 135.03125 51.742188 L 154.679688 65.621094 L 181.621094 67.535156 C 181.6875 68.078125 201.222656 44.964844 203.625 44.988281 C 204.304688 44.988281 205.921875 43.878906 206.316406 43.597656 C 208.195312 42.292969 207.605469 38.253906 207.625 35.5625 Z M 207.625 35.5625 " fill-opacity="1" fill-rule="nonzero"/></g><g clip-path="url(#bb4a87c290)"><path fill="#cbc8d2" d="M 155.113281 45.660156 L 155.3125 27.957031 C 155.3125 27.351562 155.640625 26.570312 156.164062 26.265625 L 177.46875 14.6875 C 177.839844 14.46875 178.824219 14.644531 179.152344 14.839844 C 179.457031 15.011719 179.675781 15.359375 179.675781 15.75 L 179.675781 34.0625 C 179.675781 34.671875 179.347656 35.214844 178.824219 35.515625 L 173.886719 38.363281 L 174.78125 42.664062 L 174.78125 43.292969 L 165.625 48.550781 L 165.625 47.964844 L 164.730469 43.621094 L 157.648438 47.679688 C 157.234375 47.921875 156.777344 47.875 156.425781 47.660156 C 155.59375 47.203125 155.113281 46.09375 155.113281 45.660156 Z M 162.128906 45.945312 L 164.992188 47.59375 L 164.378906 44.660156 Z M 199.34375 43.96875 C 198.121094 43.054688 197.203125 41.75 196.699219 40.339844 C 196.546875 39.882812 196.328125 39.296875 196.132812 38.644531 L 155.441406 61.996094 L 142.070312 79.457031 L 155.441406 112.082031 L 203.933594 84.257812 L 203.933594 45.703125 C 202.292969 45.550781 200.675781 44.988281 199.34375 43.96875 Z M 199.34375 43.96875 " fill-opacity="1" fill-rule="nonzero"/></g><g clip-path="url(#60ae03e18b)"><path fill="#b9b8bf" d="M 125.089844 60.867188 Z M 134.703125 50.09375 C 134.550781 50.003906 134.464844 49.832031 134.464844 49.679688 L 134.464844 50.960938 C 134.464844 51.722656 134.878906 52.4375 135.558594 52.828125 L 136.082031 53.132812 L 136.082031 67.554688 L 129.394531 63.734375 L 128.5625 63.253906 L 128.5 63.210938 L 125.460938 61.472656 C 125.242188 61.34375 125.113281 61.125 125.113281 60.886719 L 125.113281 62.300781 C 125.113281 63.058594 125.527344 63.777344 126.203125 64.167969 L 126.378906 64.277344 L 126.378906 95.402344 L 155.441406 112.082031 L 155.441406 61.996094 Z M 164.226562 43.902344 L 164.992188 47.59375 L 162.128906 45.945312 L 162.128906 46.53125 L 165.625 48.527344 L 165.625 47.941406 L 164.730469 43.597656 Z M 179.128906 14.839844 Z M 176.859375 14.144531 L 155.507812 26.394531 C 154.984375 26.699219 154.65625 27.242188 154.65625 27.851562 L 154.65625 45.988281 C 154.65625 46.441406 154.894531 46.8125 155.246094 47.007812 L 156.382812 47.660156 C 156.054688 47.464844 155.835938 47.09375 155.835938 46.660156 L 155.835938 28.523438 C 155.835938 27.914062 156.164062 27.371094 156.6875 27.066406 L 178.039062 14.816406 C 178.386719 14.621094 178.800781 14.644531 179.109375 14.816406 L 177.972656 14.167969 C 177.667969 13.96875 177.230469 13.925781 176.859375 14.144531 Z M 176.859375 14.144531 " fill-opacity="1" fill-rule="nonzero"/></g><path fill="#36373b" d="M 155.8125 20.769531 C 156.207031 21.855469 156.730469 23.851562 157.148438 25.460938 L 155.53125 26.394531 C 155.003906 26.699219 154.679688 27.242188 154.679688 27.851562 L 154.679688 37.753906 L 141.324219 45.421875 C 141.5 42.640625 141.675781 39.816406 141.699219 38.863281 C 141.742188 36.753906 136.800781 34.300781 136.800781 34.300781 C 136.847656 25.699219 137.546875 22.570312 138.222656 21.484375 C 138.902344 20.398438 141.699219 18.574219 142.855469 17.816406 C 143.597656 17.335938 144.277344 16.730469 144.648438 16.359375 C 143.839844 15.621094 143.269531 14.753906 142.855469 13.882812 C 142.289062 16.640625 139.796875 16.859375 139.796875 16.859375 C 139.796875 16.859375 139.949219 15.796875 139.117188 12.667969 C 138.308594 9.539062 138.59375 5.976562 140.410156 4.871094 C 141.917969 3.957031 142.921875 4.804688 143.226562 5.152344 C 143.839844 4.433594 144.714844 3.890625 145.914062 3.652344 C 150.242188 2.71875 151.988281 6.085938 151.988281 6.085938 L 151.835938 8.628906 C 151.835938 8.628906 150.808594 12.796875 149.847656 16.230469 C 150.546875 16.25 151.226562 16.292969 151.835938 16.316406 C 154.589844 16.445312 155.09375 18.75 155.8125 20.769531 Z M 189.96875 100.613281 C 189.96875 100.613281 189.664062 100.289062 188.8125 100.222656 C 187.957031 100.160156 186.101562 100.050781 185.03125 99.941406 C 183.960938 99.832031 182.824219 100.460938 182.953125 102.15625 C 182.953125 102.15625 183.304688 103.480469 185.207031 104.480469 C 187.105469 105.480469 189.269531 105.914062 190.164062 106.347656 C 191.0625 106.785156 193.554688 107.933594 194.601562 106.847656 C 194.601562 106.847656 195.847656 105.652344 194.382812 103.503906 C 192.898438 101.375 189.96875 100.613281 189.96875 100.613281 Z M 195.671875 97.226562 C 194.820312 97.160156 192.964844 97.050781 191.890625 96.945312 C 190.820312 96.835938 189.683594 97.464844 189.816406 99.160156 C 189.816406 99.160156 190.164062 100.484375 192.066406 101.484375 C 193.96875 102.484375 196.132812 102.917969 197.027344 103.351562 C 197.921875 103.785156 200.414062 104.9375 201.464844 103.851562 C 201.464844 103.851562 202.710938 102.65625 201.246094 100.507812 Z M 206.839844 32.476562 C 207.058594 32.996094 207.1875 33.648438 207.1875 34.476562 C 207.167969 37.191406 207.472656 40.359375 205.617188 41.6875 C 203.757812 43.011719 198.140625 40.753906 197.75 39.273438 C 197.355469 37.796875 197.222656 34.800781 197.003906 33.085938 C 196.984375 32.867188 196.894531 32.585938 196.808594 32.257812 L 195.039062 33.0625 C 194.273438 33.933594 189.992188 34.257812 188.484375 36.167969 C 186.953125 38.082031 185.730469 46.726562 185.730469 46.726562 C 185.730469 46.726562 187.019531 48.570312 188.15625 48.417969 C 188.15625 48.417969 188.242188 51.894531 188.066406 54.980469 C 187.894531 58.0625 184.660156 72.203125 186.472656 84.238281 C 186.472656 84.238281 187.742188 86.429688 189.816406 87.472656 C 190.164062 89.058594 191.609375 89.710938 192.546875 89.625 C 193.902344 89.492188 194.796875 88.777344 195.433594 87.320312 C 195.933594 87.148438 196.351562 86.972656 196.785156 86.800781 C 197.332031 87.625 198.121094 87.996094 199.125 87.953125 C 200.414062 87.90625 202.164062 87.148438 202.578125 85.519531 C 203.539062 85.039062 204.261719 84.347656 204.589844 83.476562 C 204.589844 83.476562 203.082031 82.152344 203.933594 77.589844 C 204.785156 73.03125 206.992188 60.496094 203.429688 54.957031 C 203.429688 54.957031 203.320312 48.789062 205.855469 46.703125 C 205.855469 46.703125 207.933594 46.488281 208.914062 44.226562 C 208.914062 44.269531 208.390625 34.5625 206.839844 32.476562 Z M 206.839844 32.476562 " fill-opacity="1" fill-rule="nonzero"/><path fill="#f7b487" d="M 151.988281 6.085938 C 151.988281 6.085938 153.519531 8.496094 153.410156 11.167969 C 153.300781 13.839844 152.710938 16.097656 151.683594 16.535156 C 151.507812 16.597656 151.203125 16.597656 150.832031 16.535156 L 150.570312 17.53125 C 150.570312 17.53125 151.3125 19.488281 151.707031 22.160156 C 150.046875 21.3125 144.757812 18.488281 144.976562 16.054688 C 145.347656 14.816406 144.976562 13.40625 144.976562 13.40625 C 144.976562 13.40625 143.53125 12.734375 143.335938 11.449219 C 143.140625 10.167969 144.667969 10.386719 145.28125 11.058594 C 145.28125 11.058594 146.046875 10.863281 146.113281 9.777344 C 146.175781 8.34375 147.050781 6.867188 147.839844 6.628906 C 147.839844 6.585938 151.683594 6.867188 151.988281 6.085938 Z M 189.992188 48.09375 C 188.066406 48.179688 186.339844 47.09375 185.707031 46.769531 C 185.25 48.789062 185.097656 50.679688 185.097656 50.679688 C 182.386719 52.71875 177.230469 62.257812 177.230469 62.257812 C 176.246094 62.84375 175.085938 64.382812 174.933594 65.230469 C 174.78125 66.101562 175.371094 65.796875 175.371094 65.796875 C 175.589844 65.296875 176.09375 64.949219 176.09375 64.949219 C 176.136719 65.320312 175.875 66.144531 175.589844 66.46875 C 175.304688 66.796875 174.761719 67.839844 175.21875 67.816406 C 175.679688 67.792969 178.167969 66.578125 178.5625 65.925781 C 178.957031 65.273438 179.195312 63.796875 179.195312 63.796875 C 179.195312 63.796875 187.894531 54.914062 188.898438 52.785156 C 189.683594 51.15625 189.992188 48.09375 189.992188 48.09375 Z M 193.683594 29 L 194.667969 29.023438 L 195.015625 33.105469 C 195.015625 33.105469 196.394531 33.214844 196.984375 33.105469 C 196.984375 33.105469 196.4375 26.351562 193.289062 23.441406 C 193.289062 23.441406 192.613281 22.875 192.855469 24.699219 C 192.855469 24.699219 191.957031 24.265625 191.671875 22.746094 C 191.390625 21.226562 191.78125 19.378906 190.972656 18.769531 C 190.972656 18.769531 189.816406 26.328125 193.683594 29 Z M 141.371094 35.472656 C 141.324219 35.039062 141.390625 34.171875 141.390625 34.171875 C 141.390625 34.171875 138.964844 35.757812 136.78125 34.300781 C 136.78125 34.300781 136.496094 35.953125 136.78125 36.734375 C 136.957031 37.234375 141.238281 40.90625 144.449219 43.597656 L 147.488281 41.859375 C 145.761719 39.753906 142.878906 36.386719 141.371094 35.472656 Z M 208.914062 44.269531 C 207.933594 46.507812 205.878906 46.746094 205.855469 46.746094 C 205.484375 47.09375 204.851562 48.007812 204.542969 48.570312 C 204.632812 49.113281 204.742188 49.679688 204.851562 50.003906 L 203.933594 50.417969 C 203.539062 52.046875 203.453125 53.675781 203.429688 54.5 C 204.5 54.261719 206.074219 53.742188 207.867188 52.65625 C 209.089844 51.917969 208.914062 44.269531 208.914062 44.269531 Z M 202.554688 85.585938 C 201.617188 86.0625 200.4375 86.34375 199.125 86.386719 C 198.121094 86.429688 197.421875 86.625 196.742188 86.867188 C 196.894531 90.429688 197.160156 96.769531 197.113281 97.117188 C 197.050781 97.59375 196.65625 97.617188 195.761719 97.683594 C 195.714844 97.683594 195.671875 97.683594 195.628906 97.683594 C 195.039062 97.726562 194.558594 98.136719 194.339844 98.703125 C 194.601562 96.640625 196.523438 91.253906 195.433594 87.363281 C 194.667969 87.648438 193.726562 87.90625 192.351562 88.039062 C 191.390625 88.125 190.539062 87.90625 189.773438 87.539062 C 189.773438 87.539062 190.320312 99.660156 190.253906 100.160156 C 190.1875 100.636719 189.792969 100.660156 188.898438 100.722656 C 188.855469 100.722656 188.8125 100.722656 188.765625 100.722656 C 187.785156 100.789062 187.085938 101.894531 187.476562 102.917969 C 187.828125 103.851562 189.292969 104.199219 190.625 104.414062 C 191.957031 104.632812 193.96875 105.4375 194.425781 104.414062 C 194.425781 104.414062 194.207031 101.699219 194.273438 99.679688 C 194.296875 99.746094 194.316406 99.832031 194.339844 99.898438 C 194.6875 100.832031 196.152344 101.179688 197.488281 101.398438 C 198.820312 101.613281 200.828125 102.417969 201.289062 101.398438 C 201.289062 101.398438 201.003906 97.855469 201.203125 95.816406 C 201.398438 94.035156 203.035156 89.386719 202.554688 85.585938 Z M 202.554688 85.585938 " fill-opacity="1" fill-rule="nonzero"/><g fill="#000000" fill-opacity="1"><g transform="translate(-0.939302, 163.843122)"><g><path d="M 43.78125 -32.53125 C 43.78125 -29.46875 43.082031 -26.726562 41.6875 -24.3125 C 40.289062 -21.90625 38.289062 -20.039062 35.6875 -18.71875 C 33.09375 -17.40625 30.003906 -16.75 26.421875 -16.75 L 14.59375 -16.75 L 14.59375 0 L 4.625 0 L 4.625 -47.59375 L 26.015625 -47.59375 C 31.710938 -47.59375 36.097656 -46.28125 39.171875 -43.65625 C 42.242188 -41.039062 43.78125 -37.332031 43.78125 -32.53125 Z M 33.75 -32.359375 C 33.75 -37.359375 30.796875 -39.859375 24.890625 -39.859375 L 14.59375 -39.859375 L 14.59375 -24.421875 L 25.171875 -24.421875 C 27.921875 -24.421875 30.035156 -25.101562 31.515625 -26.46875 C 33.003906 -27.832031 33.75 -29.796875 33.75 -32.359375 Z M 33.75 -32.359375 "/></g></g></g><g fill="#000000" fill-opacity="1"><g transform="translate(45.208218, 163.843122)"><g><path d="M 13.28125 0.671875 C 9.738281 0.671875 6.976562 -0.285156 5 -2.203125 C 3.019531 -4.128906 2.03125 -6.84375 2.03125 -10.34375 C 2.03125 -14.125 3.257812 -17.003906 5.71875 -18.984375 C 8.1875 -20.960938 11.765625 -21.976562 16.453125 -22.03125 L 24.328125 -22.15625 L 24.328125 -24.015625 C 24.328125 -26.398438 23.910156 -28.171875 23.078125 -29.328125 C 22.242188 -30.492188 20.878906 -31.078125 18.984375 -31.078125 C 17.222656 -31.078125 15.929688 -30.675781 15.109375 -29.875 C 14.296875 -29.082031 13.785156 -27.757812 13.578125 -25.90625 L 3.6875 -26.390625 C 4.289062 -29.941406 5.914062 -32.632812 8.5625 -34.46875 C 11.207031 -36.3125 14.816406 -37.234375 19.390625 -37.234375 C 24.003906 -37.234375 27.5625 -36.09375 30.0625 -33.8125 C 32.5625 -31.539062 33.8125 -28.3125 33.8125 -24.125 L 33.8125 -10.8125 C 33.8125 -8.757812 34.039062 -7.34375 34.5 -6.5625 C 34.96875 -5.789062 35.742188 -5.40625 36.828125 -5.40625 C 37.546875 -5.40625 38.242188 -5.472656 38.921875 -5.609375 L 38.921875 -0.46875 C 38.359375 -0.332031 37.847656 -0.207031 37.390625 -0.09375 C 36.941406 0.0078125 36.492188 0.09375 36.046875 0.15625 C 35.597656 0.226562 35.117188 0.285156 34.609375 0.328125 C 34.097656 0.378906 33.507812 0.40625 32.84375 0.40625 C 30.445312 0.40625 28.679688 -0.175781 27.546875 -1.34375 C 26.410156 -2.519531 25.726562 -4.242188 25.5 -6.515625 L 25.296875 -6.515625 C 22.640625 -1.722656 18.632812 0.671875 13.28125 0.671875 Z M 24.328125 -16.921875 L 19.453125 -16.859375 C 17.242188 -16.765625 15.675781 -16.519531 14.75 -16.125 C 13.832031 -15.738281 13.128906 -15.140625 12.640625 -14.328125 C 12.160156 -13.515625 11.921875 -12.429688 11.921875 -11.078125 C 11.921875 -9.347656 12.320312 -8.0625 13.125 -7.21875 C 13.925781 -6.375 14.988281 -5.953125 16.3125 -5.953125 C 17.800781 -5.953125 19.160156 -6.351562 20.390625 -7.15625 C 21.617188 -7.96875 22.582031 -9.085938 23.28125 -10.515625 C 23.976562 -11.953125 24.328125 -13.46875 24.328125 -15.0625 Z M 24.328125 -16.921875 "/></g></g></g><g fill="#000000" fill-opacity="1"><g transform="translate(83.687007, 163.843122)"><g><path d="M 4.828125 0 L 4.828125 -27.96875 C 4.828125 -29.976562 4.796875 -31.648438 4.734375 -32.984375 C 4.679688 -34.328125 4.625 -35.515625 4.5625 -36.546875 L 13.609375 -36.546875 C 13.679688 -36.140625 13.769531 -34.90625 13.875 -32.84375 C 13.988281 -30.789062 14.046875 -29.425781 14.046875 -28.75 L 14.1875 -28.75 C 15.113281 -31.3125 15.9375 -33.117188 16.65625 -34.171875 C 17.375 -35.222656 18.226562 -36 19.21875 -36.5 C 20.207031 -37.007812 21.445312 -37.265625 22.9375 -37.265625 C 24.15625 -37.265625 25.132812 -37.09375 25.875 -36.75 L 25.875 -28.8125 C 24.34375 -29.15625 22.992188 -29.328125 21.828125 -29.328125 C 19.460938 -29.328125 17.617188 -28.367188 16.296875 -26.453125 C 14.984375 -24.535156 14.328125 -21.695312 14.328125 -17.9375 L 14.328125 0 Z M 4.828125 0 "/></g></g></g><g fill="#000000" fill-opacity="1"><g transform="translate(110.612024, 163.843122)"><g><path d="M 14.1875 0.609375 C 11.394531 0.609375 9.242188 -0.148438 7.734375 -1.671875 C 6.222656 -3.191406 5.46875 -5.492188 5.46875 -8.578125 L 5.46875 -30.140625 L 0.84375 -30.140625 L 0.84375 -36.546875 L 5.953125 -36.546875 L 8.921875 -45.140625 L 14.859375 -45.140625 L 14.859375 -36.546875 L 21.796875 -36.546875 L 21.796875 -30.140625 L 14.859375 -30.140625 L 14.859375 -11.140625 C 14.859375 -9.367188 15.195312 -8.0625 15.875 -7.21875 C 16.550781 -6.375 17.597656 -5.953125 19.015625 -5.953125 C 19.765625 -5.953125 20.828125 -6.109375 22.203125 -6.421875 L 22.203125 -0.546875 C 19.859375 0.222656 17.1875 0.609375 14.1875 0.609375 Z M 14.1875 0.609375 "/></g></g></g><g fill="#000000" fill-opacity="1"><g transform="translate(133.652001, 163.843122)"><g><path d="M 4.828125 -43.140625 L 4.828125 -50.140625 L 14.328125 -50.140625 L 14.328125 -43.140625 Z M 4.828125 0 L 4.828125 -36.546875 L 14.328125 -36.546875 L 14.328125 0 Z M 4.828125 0 "/></g></g></g><g fill="#000000" fill-opacity="1"><g transform="translate(152.874504, 163.843122)"><g><path d="M 20.0625 0.671875 C 14.519531 0.671875 10.238281 -0.972656 7.21875 -4.265625 C 4.207031 -7.566406 2.703125 -12.171875 2.703125 -18.078125 C 2.703125 -24.109375 4.222656 -28.804688 7.265625 -32.171875 C 10.304688 -35.546875 14.617188 -37.234375 20.203125 -37.234375 C 24.503906 -37.234375 28.0625 -36.148438 30.875 -33.984375 C 33.6875 -31.828125 35.457031 -28.84375 36.1875 -25.03125 L 26.625 -24.5625 C 26.351562 -26.425781 25.675781 -27.914062 24.59375 -29.03125 C 23.507812 -30.144531 21.976562 -30.703125 20 -30.703125 C 15.113281 -30.703125 12.671875 -26.617188 12.671875 -18.453125 C 12.671875 -10.023438 15.160156 -5.8125 20.140625 -5.8125 C 21.941406 -5.8125 23.445312 -6.378906 24.65625 -7.515625 C 25.875 -8.648438 26.628906 -10.34375 26.921875 -12.59375 L 36.453125 -12.15625 C 36.109375 -9.65625 35.210938 -7.425781 33.765625 -5.46875 C 32.316406 -3.507812 30.410156 -1.992188 28.046875 -0.921875 C 25.679688 0.140625 23.019531 0.671875 20.0625 0.671875 Z M 20.0625 0.671875 "/></g></g></g><g fill="#000000" fill-opacity="1"><g transform="translate(191.353293, 163.843122)"><g><path d="M 13.78125 -36.546875 L 13.78125 -16.046875 C 13.78125 -9.628906 15.941406 -6.421875 20.265625 -6.421875 C 22.566406 -6.421875 24.421875 -7.40625 25.828125 -9.375 C 27.234375 -11.34375 27.9375 -13.867188 27.9375 -16.953125 L 27.9375 -36.546875 L 37.4375 -36.546875 L 37.4375 -8.171875 C 37.4375 -5.066406 37.523438 -2.34375 37.703125 0 L 28.640625 0 C 28.378906 -3.238281 28.25 -5.660156 28.25 -7.265625 L 28.078125 -7.265625 C 26.816406 -4.492188 25.210938 -2.476562 23.265625 -1.21875 C 21.316406 0.0390625 19 0.671875 16.3125 0.671875 C 12.4375 0.671875 9.460938 -0.515625 7.390625 -2.890625 C 5.328125 -5.265625 4.296875 -8.75 4.296875 -13.34375 L 4.296875 -36.546875 Z M 13.78125 -36.546875 "/></g></g></g><g fill="#000000" fill-opacity="1"><g transform="translate(233.615773, 163.843122)"><g><path d="M 4.828125 0 L 4.828125 -50.140625 L 14.328125 -50.140625 L 14.328125 0 Z M 4.828125 0 "/></g></g></g><g fill="#000000" fill-opacity="1"><g transform="translate(252.838276, 163.843122)"><g><path d="M 4.828125 -43.140625 L 4.828125 -50.140625 L 14.328125 -50.140625 L 14.328125 -43.140625 Z M 4.828125 0 L 4.828125 -36.546875 L 14.328125 -36.546875 L 14.328125 0 Z M 4.828125 0 "/></g></g></g><g fill="#000000" fill-opacity="1"><g transform="translate(272.060779, 163.843122)"><g><path d="M 19.796875 0.671875 C 14.296875 0.671875 10.070312 -0.953125 7.125 -4.203125 C 4.175781 -7.460938 2.703125 -12.210938 2.703125 -18.453125 C 2.703125 -24.484375 4.195312 -29.117188 7.1875 -32.359375 C 10.1875 -35.609375 14.4375 -37.234375 19.9375 -37.234375 C 25.175781 -37.234375 29.179688 -35.492188 31.953125 -32.015625 C 34.722656 -28.535156 36.109375 -23.4375 36.109375 -16.71875 L 36.109375 -16.453125 L 12.671875 -16.453125 C 12.671875 -12.890625 13.328125 -10.203125 14.640625 -8.390625 C 15.960938 -6.578125 17.835938 -5.671875 20.265625 -5.671875 C 23.617188 -5.671875 25.738281 -7.125 26.625 -10.03125 L 35.578125 -9.25 C 32.984375 -2.632812 27.722656 0.671875 19.796875 0.671875 Z M 19.796875 -31.25 C 17.566406 -31.25 15.847656 -30.472656 14.640625 -28.921875 C 13.441406 -27.367188 12.804688 -25.191406 12.734375 -22.390625 L 26.921875 -22.390625 C 26.742188 -25.347656 26.035156 -27.5625 24.796875 -29.03125 C 23.554688 -30.507812 21.890625 -31.25 19.796875 -31.25 Z M 19.796875 -31.25 "/></g></g></g><g fill="#000000" fill-opacity="1"><g transform="translate(310.539568, 163.843122)"><g><path d="M 4.828125 0 L 4.828125 -27.96875 C 4.828125 -29.976562 4.796875 -31.648438 4.734375 -32.984375 C 4.679688 -34.328125 4.625 -35.515625 4.5625 -36.546875 L 13.609375 -36.546875 C 13.679688 -36.140625 13.769531 -34.90625 13.875 -32.84375 C 13.988281 -30.789062 14.046875 -29.425781 14.046875 -28.75 L 14.1875 -28.75 C 15.113281 -31.3125 15.9375 -33.117188 16.65625 -34.171875 C 17.375 -35.222656 18.226562 -36 19.21875 -36.5 C 20.207031 -37.007812 21.445312 -37.265625 22.9375 -37.265625 C 24.15625 -37.265625 25.132812 -37.09375 25.875 -36.75 L 25.875 -28.8125 C 24.34375 -29.15625 22.992188 -29.328125 21.828125 -29.328125 C 19.460938 -29.328125 17.617188 -28.367188 16.296875 -26.453125 C 14.984375 -24.535156 14.328125 -21.695312 14.328125 -17.9375 L 14.328125 0 Z M 4.828125 0 "/></g></g></g><g fill="#000000" fill-opacity="1"><g transform="translate(337.464585, 163.843122)"><g><path d="M 35.640625 -10.671875 C 35.640625 -7.140625 34.191406 -4.363281 31.296875 -2.34375 C 28.398438 -0.332031 24.398438 0.671875 19.296875 0.671875 C 14.265625 0.671875 10.414062 -0.117188 7.75 -1.703125 C 5.082031 -3.296875 3.3125 -5.769531 2.4375 -9.125 L 10.78125 -10.375 C 11.25 -8.632812 12.0625 -7.40625 13.21875 -6.6875 C 14.382812 -5.96875 16.410156 -5.609375 19.296875 -5.609375 C 21.953125 -5.609375 23.882812 -5.945312 25.09375 -6.625 C 26.3125 -7.300781 26.921875 -8.359375 26.921875 -9.796875 C 26.921875 -10.960938 26.429688 -11.890625 25.453125 -12.578125 C 24.472656 -13.265625 22.8125 -13.847656 20.46875 -14.328125 C 15.113281 -15.378906 11.5 -16.359375 9.625 -17.265625 C 7.757812 -18.179688 6.335938 -19.363281 5.359375 -20.8125 C 4.378906 -22.269531 3.890625 -24.0625 3.890625 -26.1875 C 3.890625 -29.675781 5.234375 -32.394531 7.921875 -34.34375 C 10.609375 -36.289062 14.421875 -37.265625 19.359375 -37.265625 C 23.703125 -37.265625 27.195312 -36.414062 29.84375 -34.71875 C 32.488281 -33.03125 34.140625 -30.585938 34.796875 -27.390625 L 26.390625 -26.515625 C 26.117188 -28.003906 25.453125 -29.113281 24.390625 -29.84375 C 23.328125 -30.570312 21.648438 -30.9375 19.359375 -30.9375 C 17.109375 -30.9375 15.414062 -30.648438 14.28125 -30.078125 C 13.15625 -29.503906 12.59375 -28.539062 12.59375 -27.1875 C 12.59375 -26.132812 13.023438 -25.296875 13.890625 -24.671875 C 14.765625 -24.054688 16.226562 -23.546875 18.28125 -23.140625 C 21.132812 -22.554688 23.671875 -21.953125 25.890625 -21.328125 C 28.109375 -20.710938 29.890625 -19.976562 31.234375 -19.125 C 32.578125 -18.269531 33.644531 -17.171875 34.4375 -15.828125 C 35.238281 -14.484375 35.640625 -12.765625 35.640625 -10.671875 Z M 35.640625 -10.671875 "/></g></g></g></svg>