<svg xmlns="http://www.w3.org/2000/svg" xmlns:xlink="http://www.w3.org/1999/xlink" width="500" zoomAndPan="magnify" viewBox="0 0 375 225" height="300" preserveAspectRatio="xMidYMid meet" version="1.0"><defs><g/><clipPath id="63e91952fa"><path d="M 123.492188 65 L 217.992188 65 L 217.992188 112.542969 L 123.492188 112.542969 Z M 123.492188 65 " clip-rule="nonzero"/></clipPath><clipPath id="895f043b16"><path d="M 123.492188 83 L 217.992188 83 L 217.992188 112.542969 L 123.492188 112.542969 Z M 123.492188 83 " clip-rule="nonzero"/></clipPath><clipPath id="f9887c6847"><path d="M 145 66 L 171 66 L 171 112.542969 L 145 112.542969 Z M 145 66 " clip-rule="nonzero"/></clipPath><clipPath id="be0d363388"><path d="M 170 66 L 197 66 L 197 112.542969 L 170 112.542969 Z M 170 66 " clip-rule="nonzero"/></clipPath><clipPath id="9af56ceee8"><path d="M 151 3.042969 L 190 3.042969 L 190 37 L 151 37 Z M 151 3.042969 " clip-rule="nonzero"/></clipPath></defs><g fill="#000000" fill-opacity="1"><g transform="translate(0.420952, 152.803161)"><g><path d="M 33.03125 -24.546875 C 33.03125 -22.234375 32.5 -20.164062 31.4375 -18.34375 C 30.382812 -16.53125 28.878906 -15.125 26.921875 -14.125 C 24.960938 -13.132812 22.628906 -12.640625 19.921875 -12.640625 L 11.015625 -12.640625 L 11.015625 0 L 3.484375 0 L 3.484375 -35.90625 L 19.625 -35.90625 C 23.914062 -35.90625 27.222656 -34.914062 29.546875 -32.9375 C 31.867188 -30.957031 33.03125 -28.160156 33.03125 -24.546875 Z M 25.453125 -24.40625 C 25.453125 -28.175781 23.226562 -30.0625 18.78125 -30.0625 L 11.015625 -30.0625 L 11.015625 -18.421875 L 18.984375 -18.421875 C 21.054688 -18.421875 22.648438 -18.929688 23.765625 -19.953125 C 24.890625 -20.984375 25.453125 -22.46875 25.453125 -24.40625 Z M 25.453125 -24.40625 "/></g></g></g><g fill="#000000" fill-opacity="1"><g transform="translate(35.230905, 152.803161)"><g><path d="M 3.640625 0 L 3.640625 -21.09375 C 3.640625 -22.601562 3.617188 -23.863281 3.578125 -24.875 C 3.535156 -25.894531 3.488281 -26.796875 3.4375 -27.578125 L 10.265625 -27.578125 C 10.316406 -27.265625 10.382812 -26.332031 10.46875 -24.78125 C 10.550781 -23.226562 10.59375 -22.195312 10.59375 -21.6875 L 10.703125 -21.6875 C 11.398438 -23.625 12.019531 -24.984375 12.5625 -25.765625 C 13.101562 -26.554688 13.75 -27.144531 14.5 -27.53125 C 15.25 -27.914062 16.179688 -28.109375 17.296875 -28.109375 C 18.210938 -28.109375 18.953125 -27.976562 19.515625 -27.71875 L 19.515625 -21.734375 C 18.359375 -21.992188 17.34375 -22.125 16.46875 -22.125 C 14.675781 -22.125 13.28125 -21.398438 12.28125 -19.953125 C 11.289062 -18.503906 10.796875 -16.363281 10.796875 -13.53125 L 10.796875 0 Z M 3.640625 0 "/></g></g></g><g fill="#000000" fill-opacity="1"><g transform="translate(55.540958, 152.803161)"><g><path d="M 29.84375 -13.8125 C 29.84375 -9.34375 28.601562 -5.835938 26.125 -3.296875 C 23.644531 -0.753906 20.210938 0.515625 15.828125 0.515625 C 11.523438 0.515625 8.148438 -0.757812 5.703125 -3.3125 C 3.253906 -5.863281 2.03125 -9.363281 2.03125 -13.8125 C 2.03125 -18.25 3.253906 -21.734375 5.703125 -24.265625 C 8.148438 -26.804688 11.578125 -28.078125 15.984375 -28.078125 C 20.484375 -28.078125 23.914062 -26.847656 26.28125 -24.390625 C 28.65625 -21.941406 29.84375 -18.414062 29.84375 -13.8125 Z M 22.34375 -13.8125 C 22.34375 -17.09375 21.804688 -19.46875 20.734375 -20.9375 C 19.671875 -22.414062 18.117188 -23.15625 16.078125 -23.15625 C 11.734375 -23.15625 9.5625 -20.039062 9.5625 -13.8125 C 9.5625 -10.738281 10.085938 -8.398438 11.140625 -6.796875 C 12.203125 -5.191406 13.738281 -4.390625 15.75 -4.390625 C 20.144531 -4.390625 22.34375 -7.53125 22.34375 -13.8125 Z M 22.34375 -13.8125 "/></g></g></g><g fill="#000000" fill-opacity="1"><g transform="translate(87.420352, 152.803161)"><g><path d="M 12.046875 -22.734375 L 12.046875 0 L 4.921875 0 L 4.921875 -22.734375 L 0.890625 -22.734375 L 0.890625 -27.578125 L 4.921875 -27.578125 L 4.921875 -30.453125 C 4.921875 -32.953125 5.582031 -34.800781 6.90625 -36 C 8.226562 -37.207031 10.238281 -37.8125 12.9375 -37.8125 C 14.28125 -37.8125 15.796875 -37.675781 17.484375 -37.40625 L 17.484375 -32.796875 C 16.785156 -32.953125 16.085938 -33.03125 15.390625 -33.03125 C 14.171875 -33.03125 13.304688 -32.785156 12.796875 -32.296875 C 12.296875 -31.816406 12.046875 -30.960938 12.046875 -29.734375 L 12.046875 -27.578125 L 17.484375 -27.578125 L 17.484375 -22.734375 Z M 12.046875 -22.734375 "/></g></g></g><g fill="#000000" fill-opacity="1"><g transform="translate(104.799845, 152.803161)"><g><path d="M 14.9375 0.515625 C 10.789062 0.515625 7.601562 -0.710938 5.375 -3.171875 C 3.144531 -5.628906 2.03125 -9.207031 2.03125 -13.90625 C 2.03125 -18.46875 3.160156 -21.96875 5.421875 -24.40625 C 7.679688 -26.851562 10.882812 -28.078125 15.03125 -28.078125 C 18.988281 -28.078125 22.007812 -26.765625 24.09375 -24.140625 C 26.1875 -21.515625 27.234375 -17.671875 27.234375 -12.609375 L 27.234375 -12.40625 L 9.5625 -12.40625 C 9.5625 -9.726562 10.054688 -7.703125 11.046875 -6.328125 C 12.035156 -4.960938 13.453125 -4.28125 15.296875 -4.28125 C 17.828125 -4.28125 19.421875 -5.375 20.078125 -7.5625 L 26.828125 -6.984375 C 24.878906 -1.984375 20.914062 0.515625 14.9375 0.515625 Z M 14.9375 -23.578125 C 13.25 -23.578125 11.953125 -22.988281 11.046875 -21.8125 C 10.140625 -20.632812 9.660156 -18.992188 9.609375 -16.890625 L 20.3125 -16.890625 C 20.175781 -19.117188 19.640625 -20.789062 18.703125 -21.90625 C 17.765625 -23.019531 16.507812 -23.578125 14.9375 -23.578125 Z M 14.9375 -23.578125 "/></g></g></g><g fill="#000000" fill-opacity="1"><g transform="translate(133.825129, 152.803161)"><g><path d="M 26.890625 -8.046875 C 26.890625 -5.378906 25.796875 -3.285156 23.609375 -1.765625 C 21.421875 -0.242188 18.398438 0.515625 14.546875 0.515625 C 10.765625 0.515625 7.863281 -0.0820312 5.84375 -1.28125 C 3.832031 -2.476562 2.492188 -4.34375 1.828125 -6.875 L 8.125 -7.828125 C 8.476562 -6.515625 9.09375 -5.585938 9.96875 -5.046875 C 10.84375 -4.503906 12.367188 -4.234375 14.546875 -4.234375 C 16.554688 -4.234375 18.019531 -4.488281 18.9375 -5 C 19.851562 -5.507812 20.3125 -6.304688 20.3125 -7.390625 C 20.3125 -8.273438 19.941406 -8.972656 19.203125 -9.484375 C 18.460938 -10.003906 17.207031 -10.441406 15.4375 -10.796875 C 11.394531 -11.597656 8.664062 -12.34375 7.25 -13.03125 C 5.84375 -13.71875 4.769531 -14.609375 4.03125 -15.703125 C 3.300781 -16.804688 2.9375 -18.15625 2.9375 -19.75 C 2.9375 -22.382812 3.945312 -24.4375 5.96875 -25.90625 C 8 -27.375 10.875 -28.109375 14.59375 -28.109375 C 17.875 -28.109375 20.507812 -27.46875 22.5 -26.1875 C 24.5 -24.914062 25.75 -23.078125 26.25 -20.671875 L 19.90625 -20 C 19.695312 -21.125 19.191406 -21.960938 18.390625 -22.515625 C 17.597656 -23.066406 16.332031 -23.34375 14.59375 -23.34375 C 12.894531 -23.34375 11.617188 -23.125 10.765625 -22.6875 C 9.921875 -22.257812 9.5 -21.535156 9.5 -20.515625 C 9.5 -19.710938 9.828125 -19.078125 10.484375 -18.609375 C 11.140625 -18.140625 12.238281 -17.753906 13.78125 -17.453125 C 15.9375 -17.015625 17.851562 -16.5625 19.53125 -16.09375 C 21.207031 -15.625 22.550781 -15.066406 23.5625 -14.421875 C 24.570312 -13.773438 25.378906 -12.945312 25.984375 -11.9375 C 26.585938 -10.925781 26.890625 -9.628906 26.890625 -8.046875 Z M 26.890625 -8.046875 "/></g></g></g><g fill="#000000" fill-opacity="1"><g transform="translate(162.850412, 152.803161)"><g><path d="M 26.890625 -8.046875 C 26.890625 -5.378906 25.796875 -3.285156 23.609375 -1.765625 C 21.421875 -0.242188 18.398438 0.515625 14.546875 0.515625 C 10.765625 0.515625 7.863281 -0.0820312 5.84375 -1.28125 C 3.832031 -2.476562 2.492188 -4.34375 1.828125 -6.875 L 8.125 -7.828125 C 8.476562 -6.515625 9.09375 -5.585938 9.96875 -5.046875 C 10.84375 -4.503906 12.367188 -4.234375 14.546875 -4.234375 C 16.554688 -4.234375 18.019531 -4.488281 18.9375 -5 C 19.851562 -5.507812 20.3125 -6.304688 20.3125 -7.390625 C 20.3125 -8.273438 19.941406 -8.972656 19.203125 -9.484375 C 18.460938 -10.003906 17.207031 -10.441406 15.4375 -10.796875 C 11.394531 -11.597656 8.664062 -12.34375 7.25 -13.03125 C 5.84375 -13.71875 4.769531 -14.609375 4.03125 -15.703125 C 3.300781 -16.804688 2.9375 -18.15625 2.9375 -19.75 C 2.9375 -22.382812 3.945312 -24.4375 5.96875 -25.90625 C 8 -27.375 10.875 -28.109375 14.59375 -28.109375 C 17.875 -28.109375 20.507812 -27.46875 22.5 -26.1875 C 24.5 -24.914062 25.75 -23.078125 26.25 -20.671875 L 19.90625 -20 C 19.695312 -21.125 19.191406 -21.960938 18.390625 -22.515625 C 17.597656 -23.066406 16.332031 -23.34375 14.59375 -23.34375 C 12.894531 -23.34375 11.617188 -23.125 10.765625 -22.6875 C 9.921875 -22.257812 9.5 -21.535156 9.5 -20.515625 C 9.5 -19.710938 9.828125 -19.078125 10.484375 -18.609375 C 11.140625 -18.140625 12.238281 -17.753906 13.78125 -17.453125 C 15.9375 -17.015625 17.851562 -16.5625 19.53125 -16.09375 C 21.207031 -15.625 22.550781 -15.066406 23.5625 -14.421875 C 24.570312 -13.773438 25.378906 -12.945312 25.984375 -11.9375 C 26.585938 -10.925781 26.890625 -9.628906 26.890625 -8.046875 Z M 26.890625 -8.046875 "/></g></g></g><g fill="#000000" fill-opacity="1"><g transform="translate(191.875695, 152.803161)"><g><path d="M 3.640625 -32.546875 L 3.640625 -37.8125 L 10.796875 -37.8125 L 10.796875 -32.546875 Z M 3.640625 0 L 3.640625 -27.578125 L 10.796875 -27.578125 L 10.796875 0 Z M 3.640625 0 "/></g></g></g><g fill="#000000" fill-opacity="1"><g transform="translate(206.375595, 152.803161)"><g><path d="M 29.84375 -13.8125 C 29.84375 -9.34375 28.601562 -5.835938 26.125 -3.296875 C 23.644531 -0.753906 20.210938 0.515625 15.828125 0.515625 C 11.523438 0.515625 8.148438 -0.757812 5.703125 -3.3125 C 3.253906 -5.863281 2.03125 -9.363281 2.03125 -13.8125 C 2.03125 -18.25 3.253906 -21.734375 5.703125 -24.265625 C 8.148438 -26.804688 11.578125 -28.078125 15.984375 -28.078125 C 20.484375 -28.078125 23.914062 -26.847656 26.28125 -24.390625 C 28.65625 -21.941406 29.84375 -18.414062 29.84375 -13.8125 Z M 22.34375 -13.8125 C 22.34375 -17.09375 21.804688 -19.46875 20.734375 -20.9375 C 19.671875 -22.414062 18.117188 -23.15625 16.078125 -23.15625 C 11.734375 -23.15625 9.5625 -20.039062 9.5625 -13.8125 C 9.5625 -10.738281 10.085938 -8.398438 11.140625 -6.796875 C 12.203125 -5.191406 13.738281 -4.390625 15.75 -4.390625 C 20.144531 -4.390625 22.34375 -7.53125 22.34375 -13.8125 Z M 22.34375 -13.8125 "/></g></g></g><g fill="#000000" fill-opacity="1"><g transform="translate(238.254977, 152.803161)"><g><path d="M 21.5 0 L 21.5 -15.46875 C 21.5 -20.3125 19.863281 -22.734375 16.59375 -22.734375 C 14.851562 -22.734375 13.453125 -21.988281 12.390625 -20.5 C 11.328125 -19.007812 10.796875 -17.101562 10.796875 -14.78125 L 10.796875 0 L 3.640625 0 L 3.640625 -21.40625 C 3.640625 -22.882812 3.617188 -24.09375 3.578125 -25.03125 C 3.535156 -25.976562 3.488281 -26.828125 3.4375 -27.578125 L 10.265625 -27.578125 C 10.316406 -27.253906 10.382812 -26.390625 10.46875 -24.984375 C 10.550781 -23.585938 10.59375 -22.625 10.59375 -22.09375 L 10.703125 -22.09375 C 11.671875 -24.195312 12.882812 -25.722656 14.34375 -26.671875 C 15.800781 -27.628906 17.546875 -28.109375 19.578125 -28.109375 C 22.492188 -28.109375 24.734375 -27.207031 26.296875 -25.40625 C 27.859375 -23.601562 28.640625 -20.96875 28.640625 -17.5 L 28.640625 0 Z M 21.5 0 "/></g></g></g><g fill="#000000" fill-opacity="1"><g transform="translate(270.134382, 152.803161)"><g><path d="M 21.5 0 L 21.5 -15.46875 C 21.5 -20.3125 19.863281 -22.734375 16.59375 -22.734375 C 14.851562 -22.734375 13.453125 -21.988281 12.390625 -20.5 C 11.328125 -19.007812 10.796875 -17.101562 10.796875 -14.78125 L 10.796875 0 L 3.640625 0 L 3.640625 -21.40625 C 3.640625 -22.882812 3.617188 -24.09375 3.578125 -25.03125 C 3.535156 -25.976562 3.488281 -26.828125 3.4375 -27.578125 L 10.265625 -27.578125 C 10.316406 -27.253906 10.382812 -26.390625 10.46875 -24.984375 C 10.550781 -23.585938 10.59375 -22.625 10.59375 -22.09375 L 10.703125 -22.09375 C 11.671875 -24.195312 12.882812 -25.722656 14.34375 -26.671875 C 15.800781 -27.628906 17.546875 -28.109375 19.578125 -28.109375 C 22.492188 -28.109375 24.734375 -27.207031 26.296875 -25.40625 C 27.859375 -23.601562 28.640625 -20.96875 28.640625 -17.5 L 28.640625 0 Z M 21.5 0 "/></g></g></g><g fill="#000000" fill-opacity="1"><g transform="translate(302.013788, 152.803161)"><g><path d="M 14.9375 0.515625 C 10.789062 0.515625 7.601562 -0.710938 5.375 -3.171875 C 3.144531 -5.628906 2.03125 -9.207031 2.03125 -13.90625 C 2.03125 -18.46875 3.160156 -21.96875 5.421875 -24.40625 C 7.679688 -26.851562 10.882812 -28.078125 15.03125 -28.078125 C 18.988281 -28.078125 22.007812 -26.765625 24.09375 -24.140625 C 26.1875 -21.515625 27.234375 -17.671875 27.234375 -12.609375 L 27.234375 -12.40625 L 9.5625 -12.40625 C 9.5625 -9.726562 10.054688 -7.703125 11.046875 -6.328125 C 12.035156 -4.960938 13.453125 -4.28125 15.296875 -4.28125 C 17.828125 -4.28125 19.421875 -5.375 20.078125 -7.5625 L 26.828125 -6.984375 C 24.878906 -1.984375 20.914062 0.515625 14.9375 0.515625 Z M 14.9375 -23.578125 C 13.25 -23.578125 11.953125 -22.988281 11.046875 -21.8125 C 10.140625 -20.632812 9.660156 -18.992188 9.609375 -16.890625 L 20.3125 -16.890625 C 20.175781 -19.117188 19.640625 -20.789062 18.703125 -21.90625 C 17.765625 -23.019531 16.507812 -23.578125 14.9375 -23.578125 Z M 14.9375 -23.578125 "/></g></g></g><g fill="#000000" fill-opacity="1"><g transform="translate(331.039083, 152.803161)"><g><path d="M 3.640625 0 L 3.640625 -37.8125 L 10.796875 -37.8125 L 10.796875 0 Z M 3.640625 0 "/></g></g></g><g fill="#000000" fill-opacity="1"><g transform="translate(345.538971, 152.803161)"><g><path d="M 26.890625 -8.046875 C 26.890625 -5.378906 25.796875 -3.285156 23.609375 -1.765625 C 21.421875 -0.242188 18.398438 0.515625 14.546875 0.515625 C 10.765625 0.515625 7.863281 -0.0820312 5.84375 -1.28125 C 3.832031 -2.476562 2.492188 -4.34375 1.828125 -6.875 L 8.125 -7.828125 C 8.476562 -6.515625 9.09375 -5.585938 9.96875 -5.046875 C 10.84375 -4.503906 12.367188 -4.234375 14.546875 -4.234375 C 16.554688 -4.234375 18.019531 -4.488281 18.9375 -5 C 19.851562 -5.507812 20.3125 -6.304688 20.3125 -7.390625 C 20.3125 -8.273438 19.941406 -8.972656 19.203125 -9.484375 C 18.460938 -10.003906 17.207031 -10.441406 15.4375 -10.796875 C 11.394531 -11.597656 8.664062 -12.34375 7.25 -13.03125 C 5.84375 -13.71875 4.769531 -14.609375 4.03125 -15.703125 C 3.300781 -16.804688 2.9375 -18.15625 2.9375 -19.75 C 2.9375 -22.382812 3.945312 -24.4375 5.96875 -25.90625 C 8 -27.375 10.875 -28.109375 14.59375 -28.109375 C 17.875 -28.109375 20.507812 -27.46875 22.5 -26.1875 C 24.5 -24.914062 25.75 -23.078125 26.25 -20.671875 L 19.90625 -20 C 19.695312 -21.125 19.191406 -21.960938 18.390625 -22.515625 C 17.597656 -23.066406 16.332031 -23.34375 14.59375 -23.34375 C 12.894531 -23.34375 11.617188 -23.125 10.765625 -22.6875 C 9.921875 -22.257812 9.5 -21.535156 9.5 -20.515625 C 9.5 -19.710938 9.828125 -19.078125 10.484375 -18.609375 C 11.140625 -18.140625 12.238281 -17.753906 13.78125 -17.453125 C 15.9375 -17.015625 17.851562 -16.5625 19.53125 -16.09375 C 21.207031 -15.625 22.550781 -15.066406 23.5625 -14.421875 C 24.570312 -13.773438 25.378906 -12.945312 25.984375 -11.9375 C 26.585938 -10.925781 26.890625 -9.628906 26.890625 -8.046875 Z M 26.890625 -8.046875 "/></g></g></g><g clip-path="url(#63e91952fa)"><path fill="#2c5189" d="M 213.730469 75.804688 C 212.71875 73.171875 209.683594 71.753906 209.683594 71.753906 L 183.761719 65.472656 L 170.742188 69.886719 L 157.722656 65.472656 L 131.800781 71.753906 C 131.800781 71.753906 128.761719 73.171875 127.75 75.804688 C 126.734375 78.445312 123.5 112.382812 123.5 112.382812 L 217.988281 112.382812 C 217.988281 112.382812 214.746094 78.445312 213.730469 75.804688 " fill-opacity="1" fill-rule="nonzero"/></g><g clip-path="url(#895f043b16)"><path fill="#234774" d="M 217.988281 112.382812 C 217.988281 112.382812 216.269531 94.453125 214.949219 83.648438 C 190.316406 107.273438 129.773438 107.613281 123.953125 107.742188 C 123.671875 110.566406 123.5 112.382812 123.5 112.382812 L 217.988281 112.382812 " fill-opacity="1" fill-rule="nonzero"/></g><path fill="#d1e4f1" d="M 152.355469 66.773438 L 170.742188 103.167969 L 187.371094 66.34375 L 170.867188 69.929688 L 152.355469 66.773438 " fill-opacity="1" fill-rule="nonzero"/><path fill="#172f4c" d="M 175.082031 69.929688 L 171.019531 69.832031 L 166.957031 69.929688 L 166.597656 75.816406 L 169.332031 78.542969 L 172.707031 78.542969 L 175.441406 75.816406 L 175.082031 69.929688 " fill-opacity="1" fill-rule="nonzero"/><path fill="#ee9255" d="M 170.867188 68.710938 L 182.394531 65.269531 C 180.585938 62.128906 179.375 47.332031 179.375 47.332031 L 170.867188 50.472656 L 162.359375 47.332031 C 162.359375 47.332031 161.152344 62.128906 159.339844 65.269531 L 170.867188 68.710938 " fill-opacity="1" fill-rule="nonzero"/><path fill="#f9b57c" d="M 170.878906 10.210938 C 155.492188 10.140625 152.480469 23.519531 153.488281 33.246094 C 153.675781 35.066406 154.734375 42.941406 156.304688 49.664062 C 157.027344 52.785156 161.527344 56.632812 165.820312 59.1875 C 168.519531 60.792969 170.878906 61.25 170.878906 61.25 C 170.886719 61.25 173.246094 60.792969 175.945312 59.1875 C 180.234375 56.632812 184.734375 52.785156 185.460938 49.664062 C 187.03125 42.941406 188.089844 35.066406 188.277344 33.246094 C 189.285156 23.519531 185.261719 11.023438 170.878906 10.210938 " fill-opacity="1" fill-rule="nonzero"/><path fill="#f9b57c" d="M 154.480469 32.644531 C 154.480469 32.644531 150.023438 28.382812 148.8125 32.4375 C 147.8125 35.777344 151.925781 45.4375 154.828125 42.28125 L 154.480469 32.644531 " fill-opacity="1" fill-rule="nonzero"/><path fill="#f9b57c" d="M 187.171875 32.644531 C 187.171875 32.644531 191.625 28.382812 192.84375 32.4375 C 193.84375 35.777344 189.722656 45.4375 186.828125 42.28125 L 187.171875 32.644531 " fill-opacity="1" fill-rule="nonzero"/><path fill="#ffffff" d="M 170.867188 68.710938 C 170.867188 68.710938 161.125 64.152344 160.132812 63.085938 C 160.132812 63.085938 158.429688 62.535156 157.414062 63.648438 C 156.402344 64.761719 152.355469 66.773438 152.355469 66.773438 L 161.441406 84.753906 C 161.441406 84.753906 166.226562 75.910156 170.867188 70.640625 L 170.867188 68.710938 " fill-opacity="1" fill-rule="nonzero"/><path fill="#ffffff" d="M 170.867188 68.710938 C 170.867188 68.710938 180.613281 64.152344 181.605469 63.085938 C 181.605469 63.085938 183.304688 62.535156 184.316406 63.648438 C 185.332031 64.761719 187.371094 66.34375 187.371094 66.34375 L 179.386719 84.027344 C 179.386719 84.027344 175.507812 75.910156 170.867188 70.640625 L 170.867188 68.710938 " fill-opacity="1" fill-rule="nonzero"/><path fill="#172f4c" d="M 169.332031 78.542969 L 166.597656 94.964844 L 170.742188 103.167969 L 174.785156 94.210938 L 172.707031 78.542969 L 169.332031 78.542969 " fill-opacity="1" fill-rule="nonzero"/><g clip-path="url(#f9887c6847)"><path fill="#335c92" d="M 148.875 67.613281 L 145.300781 80.066406 L 151.375 82.496094 L 145.300781 87.226562 L 165.953125 112.382812 L 170.617188 112.382812 L 170.742188 103.167969 L 152.355469 66.773438 L 148.875 67.613281 " fill-opacity="1" fill-rule="nonzero"/></g><g clip-path="url(#be0d363388)"><path fill="#335c92" d="M 190.84375 67.1875 L 196.460938 80.066406 L 190.382812 82.496094 L 196.460938 87.226562 L 175.351562 112.382812 L 170.617188 112.382812 L 170.742188 103.167969 L 187.371094 66.34375 L 190.84375 67.1875 " fill-opacity="1" fill-rule="nonzero"/></g><g clip-path="url(#9af56ceee8)"><path fill="#462516" d="M 152.355469 31.136719 L 153.800781 35.730469 C 153.800781 35.730469 155.558594 31.289062 156.644531 29.402344 C 157.722656 27.507812 158.257812 22.644531 158.257812 21.289062 C 158.257812 19.941406 159.339844 18.046875 160.285156 17.644531 C 161.230469 17.238281 169.871094 20.347656 172.707031 19.667969 C 175.539062 18.992188 182.964844 18.453125 183.367188 18.589844 C 183.777344 18.726562 184.179688 20.613281 184.453125 21.832031 C 184.71875 23.046875 183.367188 27.773438 184.453125 29.402344 C 185.53125 31.015625 187.8125 36.800781 187.8125 36.800781 C 187.8125 36.800781 191.488281 20.613281 189.273438 14.671875 C 187.054688 8.726562 177.296875 4.136719 171.683594 3.664062 C 165.925781 3.183594 155.226562 7.78125 152.355469 15.210938 C 149.484375 22.644531 152.355469 31.136719 152.355469 31.136719 " fill-opacity="1" fill-rule="nonzero"/></g></svg>